<mxfile host="app.diagrams.net" modified="2024-04-14T02:10:06.999Z" agent="Mozilla/5.0 (Windows NT 10.0; Win64; x64) AppleWebKit/537.36 (KHTML, like Gecko) Chrome/123.0.0.0 Safari/537.36" version="24.2.1" etag="57x4i9zIcX0NQpvUADhI" type="github">
  <diagram name="第 1 页" id="_yHH3psOANB1RMjNBVOY">
    <mxGraphModel>
      <root>
        <mxCell id="0" />
        <mxCell id="1" parent="0" />
      </root>
    </mxGraphModel>
  </diagram>
</mxfile>
